<svg xmlns="http://www.w3.org/2000/svg" viewBox="0 0 24 24" fill="#E4405F">
  <path d="M12.017 0C8.396 0 8.025.015 6.782.072 5.54.13 4.67.347 3.909.73c-.789.4-1.458.935-2.126 1.603C.916 3.001.38 3.67-.02 4.459c-.383.761-.6 1.631-.658 2.874C-.735 8.576-.75 8.947-.75 12.568c0 3.621.015 3.993.072 5.235.058 1.244.275 2.114.657 2.875.4.789.935 1.458 1.603 2.126.668.668 1.337 1.203 2.126 1.603.761.383 1.631.6 2.875.658 1.242.057 1.613.072 5.234.072 3.621 0 3.993-.015 5.235-.072 1.244-.058 2.114-.275 2.875-.657.789-.4 1.458-.935 2.126-1.603.668-.668 1.203-1.337 1.603-2.126.383-.761.6-1.631.658-2.875.057-1.242.072-1.613.072-5.234 0-3.621-.015-3.993-.072-5.235-.058-1.244-.275-2.114-.657-2.875-.4-.789-.935-1.458-1.603-2.126C19.457.731 18.788.196 17.999-.204c-.761-.383-1.631-.6-2.875-.658C13.883-.735 13.512-.75 12.017-.75L12.017 0zm0 2.158c3.555 0 3.97.013 5.37.07 1.295.059 2 .275 2.468.457.62.241 1.063.53 1.527.993.464.464.753.908.993 1.527.182.468.398 1.173.457 2.468.057 1.4.07 1.815.07 5.37 0 3.555-.013 3.97-.07 5.37-.059 1.295-.275 2-.457 2.468a4.108 4.108 0 01-.993 1.527c-.464.464-.908.753-1.527.993-.468.182-1.173.398-2.468.457-1.4.057-1.815.07-5.37.07-3.555 0-3.97-.013-5.37-.07-1.295-.059-2-.275-2.468-.457a4.108 4.108 0 01-1.527-.993 4.108 4.108 0 01-.993-1.527c-.182-.468-.398-1.173-.457-2.468-.057-1.4-.07-1.815-.07-5.37 0-3.555.013-3.97.07-5.37.059-1.295.275-2 .457-2.468.241-.62.53-1.063.993-1.527a4.108 4.108 0 011.527-.993c.468-.182 1.173-.398 2.468-.457 1.4-.057 1.815-.07 5.37-.07l0 0zm0 3.678a6.162 6.162 0 100 12.324 6.162 6.162 0 100-12.324zM12.017 16a3.84 3.84 0 110-7.68 3.84 3.84 0 010 7.68zm7.539-12.533a1.44 1.44 0 11-2.88 0 1.44 1.44 0 012.88 0z"/>
</svg>